<?xml version="1.0" encoding="UTF-8"?>
<svg id="Layer_1" data-name="Layer 1" xmlns="http://www.w3.org/2000/svg" xmlns:xlink="http://www.w3.org/1999/xlink" viewBox="0 0 517.45 328.96">
  <defs>
    <style>
      .cls-1 {
        fill: none;
      }

      .cls-2 {
        fill: url(#linear-gradient-8);
      }

      .cls-3 {
        fill: url(#linear-gradient-7);
      }

      .cls-4 {
        fill: url(#linear-gradient-5);
      }

      .cls-5 {
        fill: url(#linear-gradient-6);
      }

      .cls-6 {
        fill: url(#linear-gradient-9);
      }

      .cls-7 {
        fill: url(#linear-gradient-4);
      }

      .cls-8 {
        fill: url(#linear-gradient-3);
      }

      .cls-9 {
        fill: url(#linear-gradient-2);
      }

      .cls-10 {
        fill: url(#linear-gradient);
      }

      .cls-11 {
        clip-path: url(#clippath-1);
      }

      .cls-12 {
        clip-path: url(#clippath-3);
      }

      .cls-13 {
        clip-path: url(#clippath-4);
      }

      .cls-14 {
        clip-path: url(#clippath-2);
      }

      .cls-15 {
        clip-path: url(#clippath-7);
      }

      .cls-16 {
        clip-path: url(#clippath-6);
      }

      .cls-17 {
        clip-path: url(#clippath-8);
      }

      .cls-18 {
        clip-path: url(#clippath-5);
      }

      .cls-19 {
        fill: #b3254f;
      }

      .cls-20 {
        clip-path: url(#clippath);
      }
    </style>
    <clipPath id="clippath">
      <polygon class="cls-1" points="337.93 94.91 325.92 .73 331.65 0 343.67 94.18 337.93 94.91"/>
    </clipPath>
    <linearGradient id="linear-gradient" x1="329.39" y1="4.26" x2="340.59" y2="93.88" gradientUnits="userSpaceOnUse">
      <stop offset="0" stop-color="#edb173"/>
      <stop offset=".53" stop-color="#e9393c"/>
      <stop offset="1" stop-color="#ad2351"/>
    </linearGradient>
    <clipPath id="clippath-1">
      <rect class="cls-1" x="356.36" y="62.77" width="65.28" height="5.79" transform="translate(190.53 406.6) rotate(-69.38)"/>
    </clipPath>
    <linearGradient id="linear-gradient-2" x1="387.5" y1="36.55" x2="390.63" y2="96.94" gradientUnits="userSpaceOnUse">
      <stop offset="0" stop-color="#edb173"/>
      <stop offset=".53" stop-color="#e9393c"/>
      <stop offset="1" stop-color="#ad2351"/>
    </linearGradient>
    <clipPath id="clippath-2">
      <polygon class="cls-1" points="407.89 115.28 477.13 50.32 481.09 54.54 411.85 119.5 407.89 115.28"/>
    </clipPath>
    <linearGradient id="linear-gradient-3" x1="443.79" y1="52.95" x2="445.25" y2="119.27" gradientUnits="userSpaceOnUse">
      <stop offset="0" stop-color="#edb173"/>
      <stop offset=".53" stop-color="#e9393c"/>
      <stop offset="1" stop-color="#ad2351"/>
    </linearGradient>
    <clipPath id="clippath-3">
      <rect class="cls-1" x="428.9" y="136.61" width="65.28" height="5.78" transform="translate(-20.45 126.57) rotate(-15.28)"/>
    </clipPath>
    <linearGradient id="linear-gradient-4" x1="461.45" y1="128.97" x2="461.63" y2="150.81" gradientUnits="userSpaceOnUse">
      <stop offset="0" stop-color="#edb173"/>
      <stop offset=".53" stop-color="#e9393c"/>
      <stop offset="1" stop-color="#ad2351"/>
    </linearGradient>
    <clipPath id="clippath-4">
      <rect class="cls-1" x="468.89" y="150.85" width="5.8" height="91.92" transform="translate(188.04 622.03) rotate(-78.93)"/>
    </clipPath>
    <linearGradient id="linear-gradient-5" x1="471.72" y1="186.02" x2="471.85" y2="208.4" gradientUnits="userSpaceOnUse">
      <stop offset="0" stop-color="#edb173"/>
      <stop offset=".53" stop-color="#e9393c"/>
      <stop offset="1" stop-color="#ad2351"/>
    </linearGradient>
    <clipPath id="clippath-5">
      <polygon class="cls-1" points="410.98 217.31 456.83 254.42 453.18 258.91 407.33 221.8 410.98 217.31"/>
    </clipPath>
    <linearGradient id="linear-gradient-6" x1="431.7" y1="218.88" x2="432.48" y2="258.77" gradientUnits="userSpaceOnUse">
      <stop offset="0" stop-color="#edb173"/>
      <stop offset=".53" stop-color="#e9393c"/>
      <stop offset="1" stop-color="#ad2351"/>
    </linearGradient>
    <clipPath id="clippath-6">
      <polygon class="cls-1" points="382.15 241.16 418.7 326.69 413.38 328.96 376.82 243.43 382.15 241.16"/>
    </clipPath>
    <linearGradient id="linear-gradient-7" x1="395.78" y1="244.57" x2="399.9" y2="328.58" gradientUnits="userSpaceOnUse">
      <stop offset="0" stop-color="#edb173"/>
      <stop offset=".53" stop-color="#e9393c"/>
      <stop offset="1" stop-color="#ad2351"/>
    </linearGradient>
    <clipPath id="clippath-7">
      <polygon class="cls-1" points="344.59 247.05 342.04 303.72 336.26 303.47 338.81 246.8 344.59 247.05"/>
    </clipPath>
    <linearGradient id="linear-gradient-8" x1="336.33" y1="249.61" x2="344.83" y2="302.84" gradientUnits="userSpaceOnUse">
      <stop offset="0" stop-color="#edb173"/>
      <stop offset=".53" stop-color="#e9393c"/>
      <stop offset="1" stop-color="#ad2351"/>
    </linearGradient>
    <clipPath id="clippath-8">
      <path class="cls-1" d="M376.24,148.73h4.68c1.76,0,3.12-.48,4.08-1.45s1.45-2.32,1.45-4.08v-6.89c0-1.76-.48-3.12-1.45-4.08-.96-.96-2.32-1.45-4.08-1.45h-4.68v17.94ZM387.46,181.8l-6.55-24.57h-4.68v24.57h-9.01v-59.52h14.11c4.31,0,7.74,1.29,10.29,3.87,2.55,2.58,3.83,6.02,3.83,10.33v6.55c0,2.72-.54,5.13-1.62,7.23-1.08,2.1-2.61,3.74-4.59,4.93l7.57,26.61h-9.35ZM334.06,122.29h25.59v8.5h-16.58v16.58h13.18v8.5h-13.18v17.43h16.58v8.5h-25.59v-59.52ZM327.01,122.29l-8.76,59.52h-9.95l-4.76-39.2-4.76,39.2h-9.95l-8.76-59.52h9.1l4.93,40.22,4.93-40.22h9.18l4.93,40.22,4.93-40.22h8.93ZM259.41,174.15c1.7,0,3.03-.51,4-1.53.96-1.02,1.45-2.47,1.45-4.34v-32.48c0-1.87-.48-3.32-1.45-4.34-.96-1.02-2.3-1.53-4-1.53s-3.03.51-4,1.53c-.96,1.02-1.45,2.47-1.45,4.34v32.48c0,1.87.48,3.32,1.45,4.34.96,1.02,2.3,1.53,4,1.53ZM259.41,182.65c-4.31,0-7.79-1.32-10.46-3.95-2.66-2.64-4-6.11-4-10.42v-32.48c0-4.31,1.33-7.78,4-10.42,2.66-2.64,6.15-3.95,10.46-3.95s7.79,1.32,10.46,3.95c2.66,2.64,4,6.11,4,10.42v32.48c0,4.31-1.33,7.78-4,10.42-2.66,2.64-6.15,3.95-10.46,3.95ZM223.62,149.15c1.76,0,3.12-.48,4.08-1.45.96-.96,1.45-2.32,1.45-4.08v-7.31c0-1.76-.48-3.12-1.45-4.08-.96-.96-2.32-1.45-4.08-1.45h-4.68v18.37h4.68ZM209.93,122.29h14.11c4.31,0,7.74,1.29,10.29,3.87,2.55,2.58,3.83,6.02,3.83,10.33v6.97c0,4.31-1.28,7.75-3.83,10.33-2.55,2.58-5.98,3.87-10.29,3.87h-5.1v24.15h-9.01v-59.52ZM183.06,122.29v59.52h-9.01v-40.81l-8.42,40.81h-6.29l-8.42-40.81v40.81h-8.84v-59.52h12.75l7.82,38.01,7.48-38.01h12.92ZM118.53,174.15c1.7,0,3.03-.51,4-1.53.96-1.02,1.45-2.47,1.45-4.34v-32.48c0-1.87-.48-3.32-1.45-4.34-.96-1.02-2.3-1.53-4-1.53s-3.03.51-4,1.53c-.96,1.02-1.45,2.47-1.45,4.34v32.48c0,1.87.48,3.32,1.45,4.34.96,1.02,2.3,1.53,4,1.53ZM118.53,182.65c-4.31,0-7.79-1.32-10.46-3.95-2.66-2.64-4-6.11-4-10.42v-32.48c0-4.31,1.33-7.78,4-10.42,2.66-2.64,6.15-3.95,10.46-3.95s7.79,1.32,10.46,3.95c2.66,2.64,4,6.11,4,10.42v32.48c0,4.31-1.33,7.78-4,10.42-2.66,2.64-6.15,3.95-10.46,3.95ZM76.86,148.73h4.68c1.76,0,3.12-.48,4.08-1.45.96-.96,1.45-2.32,1.45-4.08v-6.89c0-1.76-.48-3.12-1.45-4.08-.96-.96-2.32-1.45-4.08-1.45h-4.68v17.94ZM88.09,181.8l-6.55-24.57h-4.68v24.57h-9.01v-59.52h14.11c4.31,0,7.74,1.29,10.29,3.87,2.55,2.58,3.83,6.02,3.83,10.33v6.55c0,2.72-.54,5.13-1.62,7.23-1.08,2.1-2.61,3.74-4.59,4.93l7.57,26.61h-9.35ZM34.69,122.29h25.59v8.5h-16.58v16.58h13.18v8.5h-13.18v17.43h16.58v8.5h-25.59v-59.52ZM27.04,129.94l-17.01,43.36h17.01v8.5H0v-7.65l17.01-43.36H0v-8.5h27.04v7.65Z"/>
    </clipPath>
    <linearGradient id="linear-gradient-9" x1="198.31" y1="123.75" x2="198.52" y2="182.46" gradientUnits="userSpaceOnUse">
      <stop offset="0" stop-color="#edb173"/>
      <stop offset=".53" stop-color="#e9393c"/>
      <stop offset="1" stop-color="#ad2351"/>
    </linearGradient>
  </defs>
  <g class="cls-20">
    <rect class="cls-10" x="325.92" width="17.75" height="94.91"/>
  </g>
  <g class="cls-11">
    <rect class="cls-9" x="374.8" y="34.09" width="28.41" height="63.14"/>
  </g>
  <g class="cls-14">
    <rect class="cls-8" x="407.89" y="50.32" width="73.21" height="69.18"/>
  </g>
  <g class="cls-12">
    <rect class="cls-7" x="429.29" y="128.11" width="64.49" height="22.78"/>
  </g>
  <g class="cls-13">
    <rect class="cls-4" x="426.12" y="185.14" width="91.32" height="23.34"/>
  </g>
  <g class="cls-18">
    <rect class="cls-5" x="407.33" y="217.31" width="49.49" height="41.6"/>
  </g>
  <g class="cls-16">
    <rect class="cls-3" x="376.82" y="241.16" width="41.88" height="87.8"/>
  </g>
  <g class="cls-15">
    <rect class="cls-2" x="336.26" y="246.8" width="8.33" height="56.92"/>
  </g>
  <g class="cls-17">
    <rect class="cls-6" y="121.44" width="396.81" height="61.22"/>
  </g>
  <path class="cls-19" d="M390.56,202.65v11.14h-3.15v-11.14h-6.23v-2.42h15.63v2.42h-6.25ZM374.6,202.65h-8.51v8.59h8.51v-2.92l3.15.66v1.6c0,1.24-.23,2.08-.7,2.53-.46.45-1.35.67-2.66.67h-8.1c-1.32,0-2.21-.22-2.67-.67-.46-.45-.69-1.29-.69-2.53v-7.15c0-1.23.23-2.07.69-2.52.46-.45,1.35-.68,2.67-.68h8.1c1.31,0,2.19.23,2.66.68.47.45.7,1.3.7,2.52v1.29l-3.15.5v-2.57ZM343.4,213.78v-13.55h13.87v2.31h-10.72v3.02h6.25v2.31h-6.25v3.36h10.85v2.55h-14ZM323.88,213.78v-13.55h11.58c1.08,0,1.86.21,2.35.62.49.41.73,1.08.73,2v3.03c0,.92-.24,1.58-.73,2-.48.42-1.27.62-2.35.62h-8.48v5.28h-3.1ZM334.06,202.57h-7.09v3.6h7.09c.55,0,.92-.08,1.12-.24.2-.16.3-.44.3-.84v-1.45c0-.39-.1-.67-.3-.83-.2-.16-.57-.24-1.12-.24ZM314.37,202.59h-8.88v2.92h8.45c1.33,0,2.22.23,2.69.68.47.46.7,1.3.7,2.53v1.86c0,1.23-.23,2.07-.7,2.52-.47.45-1.36.68-2.69.68h-8.37c-1.33,0-2.22-.23-2.69-.68-.47-.45-.7-1.3-.7-2.52v-.37l2.78-.58v1.6h9.59v-3.1h-8.46c-1.32,0-2.21-.23-2.67-.68-.46-.45-.69-1.29-.69-2.52v-1.5c0-1.23.23-2.07.69-2.53.46-.45,1.35-.68,2.67-.68h7.7c1.27,0,2.15.22,2.64.65.49.44.73,1.21.73,2.32v.28l-2.78.66v-1.55ZM282.8,213.78v-13.55h13.87v2.31h-10.72v3.02h6.25v2.31h-6.25v3.36h10.85v2.55h-14ZM261.74,213.78v-13.55h11.58c1.08,0,1.86.21,2.35.62.49.41.73,1.08.73,2v3.19c0,.92-.24,1.58-.73,2-.48.42-1.27.63-2.35.63h-1.77l6.26,5.12h-4.53l-5.46-5.12h-2.99v5.12h-3.1ZM271.93,202.57h-7.09v3.78h7.09c.55,0,.92-.08,1.12-.24.2-.16.3-.44.3-.85v-1.63c0-.39-.1-.67-.3-.83-.2-.16-.57-.24-1.12-.24ZM231.74,213.78v-13.55h13.87v2.31h-10.72v3.02h6.25v2.31h-6.25v3.36h10.85v2.55h-14ZM210.2,213.78l-5.22-13.55h3.26l3.44,9.09,3.6-9.09h2.21l3.67,9.09,3.28-9.09h2.82l-5.23,13.55h-2.13l-3.73-9.37-3.78,9.37h-2.18Z"/>
</svg>